<svg xmlns="http://www.w3.org/2000/svg" viewBox="0 0 36 36" fill="none">
    <path fill="currentColor" d="M5.26 16.1v-2.71H6.5V9.57h1.29V8.3h1.3V7h5.08v1.32h-2.49V9.6h-2.5v1.17h3.71V9.58H23.1v1.2h3.74V9.63h-2.48V8.34h-2.52V7h5.07v1.27h1.3v1.27h1.28v3.82h1.23v3.82H32v8.91h-1.25v1.3H29.5v1.27h-5.15V27.4h-1.29v-1.27h-10.1v1.26h-1.29v1.27H6.52v-1.24H5.29v-1.3H4v-8.9h1.27V16.1Zm6.62 7.43h3.55v-1.25h1.25v-3.82H15.4v-1.2h-3.75v1.23h-1.26v3.8h1.27v1c.01.09.1.16.22.24Zm8.7-6.06v1.02H19.3v3.81h1.28v1.2h3.76v-1.22h1.25v-3.82h-1.28v-1.21H20.8c-.07 0-.15.1-.22.22Zm2.53 7.55v1.06h2.5v-1.2h-1.43c-.36 0-.71.04-1.07.14Zm-10.22.4v-.53h-2.5v1.2h2.5v-.67Zm14.03-14.27v.9h1.2v-1.2l-1.02.01c-.06 0-.12.14-.18.29Zm-17.84.4v-.67h-1.2v1.19h1.2v-.53Z"/>
</svg>