<svg xmlns="http://www.w3.org/2000/svg" viewBox="0 0 36 36" fill="none">
    <path fill="currentColor" d="M31 16h-6v5h6v-5Z"/>
    <path fill="currentColor" d="M22 5h-9v5h9V5Z"/>
    <path fill="currentColor" d="M12 21H7v5h5v-5Z"/>
    <path fill="currentColor" d="M30 20h-5v5h5v-5Z"/>
    <path fill="currentColor" d="M12 9H7v6h5V9Z"/>
    <path fill="currentColor" d="M11 13H5v9h6v-9Z"/>
    <path fill="currentColor" d="M15 24H9v5h6v-5Z"/>
    <path fill="currentColor" d="M15 7h-5v5h5V7Z"/>
    <path fill="currentColor" d="M28 16h-5v5h5v-5Zm0 7h-5v5h5v-5Z"/>
    <path fill="currentColor" d="M26 6h-5v5h5V6Z"/>
    <path fill="currentColor" d="M25 25H14v6h11v-6Z"/>
    <path fill="currentColor" d="M23 16h-5v5h5v-5Z"/>
</svg>