<svg xmlns="http://www.w3.org/2000/svg" fill="none" viewBox="0 0 24 24">
    <path fill="currentColor" d="M11 3h2v2h-2V3ZM11 19h2v2h-2v-2ZM19 11h2v2h-2v-2ZM3 13h2v2H3v-2ZM3 9h2v2H3V9ZM5 9h2v2H5V9ZM3 7h2v2H3V7ZM9 3h2v2H9V3ZM7 5h2v2H7V5ZM5 7h2v2H5V7ZM9 19h2v2H9v-2ZM13 19h2v2h-2v-2ZM19 13h2v2h-2v-2ZM19 9h2v2h-2V9ZM17 7h2v2h-2V7ZM15 5h2v2h-2V5ZM13 3h2v2h-2V3ZM15 17h2v2h-2v-2ZM17 15h2v2h-2v-2ZM7 17h2v2H7v-2ZM5 15h2v2H5v-2ZM7 9h2v2H7V9ZM3 5h2v2H3V5ZM11 7h2v2h-2V7ZM11 9h2v2h-2V9ZM11 11h2v2h-2v-2ZM13 13h2v2h-2v-2Z"/>
</svg>