<svg fill="none" xmlns="http://www.w3.org/2000/svg" viewBox="0 0 24 24">
    <path d="M11 3h2v2h-2V3ZM9 3h2v2H9V3ZM7 5h2v2H7V5ZM15 5h2v2h-2V5ZM13 3h2v2h-2V3ZM17 7h2v2h-2V7ZM17 9h2v2h-2V9ZM17 11h2v2h-2v-2ZM19 17h2v2h-2v-2ZM17 17h2v2h-2v-2ZM15 17h2v2h-2v-2ZM13 17h2v2h-2v-2ZM11 17h2v2h-2v-2ZM9 17h2v2H9v-2ZM7 17h2v2H7v-2ZM5 17h2v2H5v-2ZM3 17h2v2H3v-2ZM9 19h2v2H9v-2ZM13 19h2v2h-2v-2ZM11 21h2v2h-2v-2ZM17 13h2v2h-2v-2ZM5 7h2v2H5V7ZM5 9h2v2H5V9ZM5 11h2v2H5v-2ZM5 13h2v2H5v-2ZM19 15h2v2h-2v-2ZM3 15h2v2H3v-2ZM5 1h2v2H5V1ZM3 3h2v2H3V3ZM17 1h2v2h-2V1ZM19 3h2v2h-2V3Z" fill="currentColor"/>
</svg>